<?xml version="1.0" encoding="utf-8"?>
<!-- Generator: Adobe Illustrator 19.1.0, SVG Export Plug-In . SVG Version: 6.00 Build 0)  -->
<svg version="1.1" id="Capa_1" xmlns="http://www.w3.org/2000/svg" xmlns:xlink="http://www.w3.org/1999/xlink" x="0px" y="0px"
	 viewBox="30 -30.6 430.1 430.1" style="enable-background:new 30 -30.6 430.1 430.1;" xml:space="preserve">
<style type="text/css">
	.st0{fill:#FFFFFF;}
</style>
<g>
	<path id="Creative_Commons" class="st0" d="M246.8,184.4c0-41.9,27.9-66.7,63-66.7c24.1,0,44.8,8.8,57,31l-28.6,15
		c-6.7-14.3-18.1-17.4-23.9-17.4c-21.2,0-28.9,16.4-28.9,38.1c0,21.7,9.1,38.1,28.9,38.1c11.5,0,20.5-4.3,26.5-18.6l26.7,13.6
		c-11.4,20.2-32.2,33.6-56.5,33.6C273.1,251.1,246.8,227.1,246.8,184.4z M186.8,251.1c24.3,0,45.1-13.3,56.5-33.6L216.6,204
		c-6,14.3-15,18.6-26.5,18.6c-19.8,0-28.9-16.4-28.9-38.1c0-21.7,7.6-38.1,28.9-38.1c5.7,0,17.2,3.1,23.9,17.4l28.6-15
		c-12.2-22.2-32.9-31-57-31c-35.1,0-63,24.8-63,66.7C122.6,227.1,148.8,251.1,186.8,251.1z M93.1,335.9
		C51.8,294.6,30,241.6,30,184.4c0-56.6,22.4-110.8,63.7-152.6c40.1-40.7,92.1-62.5,151.1-62.5s112.1,21.8,153.4,63
		c40.7,40.7,61.9,93.7,61.9,152c0,58.9-21.2,111.4-61.4,150.8c-42.5,41.8-97.4,64.2-154,64.2C188.1,399.5,134.4,377.1,93.1,335.9z
		 M68.9,184.4c0,46,18.9,90.1,52.5,123.7c33.6,33.6,77.3,51.8,123.9,51.8c46,0,90.9-18.3,125.7-52.4c33-32.4,50.1-74.8,50.1-123.1
		c0-47.7-17.7-91.3-50.7-124.3C336.8,26.5,293.7,8.3,245.4,8.3C197,8.3,154.5,26,121.4,59.5C87.8,93.7,68.9,137.9,68.9,184.4z"/>
</g>
</svg>
