<?xml version="1.0" encoding="utf-8"?>
<!-- Generator: Adobe Illustrator 19.1.0, SVG Export Plug-In . SVG Version: 6.00 Build 0)  -->
<svg version="1.1" id="Capa_1" xmlns="http://www.w3.org/2000/svg" xmlns:xlink="http://www.w3.org/1999/xlink" x="0px" y="0px"
	 viewBox="30 -30.6 430.1 430.1" style="enable-background:new 30 -30.6 430.1 430.1;" xml:space="preserve">
<style type="text/css">
	.st0{fill:#FFFFFF;}
</style>
<g>
	<path id="Dribbble" class="st0" d="M245.1-30.6C126.3-30.6,30,65.7,30,184.4c0,118.8,96.3,215,215.1,215s215.1-96.3,215.1-215
		C460.1,65.7,363.8-30.6,245.1-30.6z M376.8,80.9c21,26.6,34.1,59.6,35.8,95.7c-24.3-5.2-47.2-7.7-68.6-7.7v0h-0.2
		c-17.2,0-33.4,1.6-48.6,4.3c-3.7-9.1-7.5-17.8-11.2-26.1C317.9,132.1,350.5,111,376.8,80.9z M245.1,16.7
		c39.6,0,75.9,13.8,104.6,36.9c-22,26.3-51,45.4-82.4,58.9c-22-42.6-43.3-73.1-57.9-91.7C220.9,18.1,232.8,16.7,245.1,16.7z
		 M170.9,34.2c11.6,13.8,35,44,59.9,91.3C180.2,140.5,129.2,144,98.3,144c-0.9,0-1.8,0-2.6,0h0c-5.2,0-9.7-0.1-13.4-0.2
		C94.3,95.6,127.3,55.7,170.9,34.2z M77.3,184.4c0-0.8,0-1.6,0.1-2.4c4.8,0.2,10.9,0.3,18.3,0.3h0c33.7-0.2,92.6-3,152.3-21.9
		c3.3,7.1,6.5,14.5,9.7,22.2c-39.9,13.3-71.2,34.6-94.5,55.7c-22.4,20.4-37.5,40.5-46.3,54C92.2,263.2,77.3,225.6,77.3,184.4z
		 M245.1,352.2c-37.3,0-71.8-12.3-99.7-33.1c5.9-9.8,18.7-28.5,38.9-47.9c20.8-20,49.6-40.5,87.2-52.8
		c12.8,35.8,24.3,76.7,33.1,122.8C286.1,348.3,266,352.2,245.1,352.2z M340,322.4c-8.5-41.7-19.2-79.2-31-112.7
		c10.9-1.6,22.3-2.4,34.4-2.4h0.4h0h0c20,0,42,2.5,65.9,7.9C401.5,259.5,375.8,297.7,340,322.4z"/>
</g>
</svg>
