<?xml version="1.0" encoding="utf-8"?>
<!-- Generator: Adobe Illustrator 19.1.0, SVG Export Plug-In . SVG Version: 6.00 Build 0)  -->
<svg version="1.1" id="Layer_1" xmlns="http://www.w3.org/2000/svg" xmlns:xlink="http://www.w3.org/1999/xlink" x="0px" y="0px"
	 viewBox="-41 164.9 512 512" style="enable-background:new -41 164.9 512 512;" xml:space="preserve">
<g>
	<g>
		<path d="M329.7,164.9H100.3C22.4,164.9-41,228.3-41,306.2v229.4c0,77.9,63.4,141.3,141.3,141.3h229.4
			c77.9,0,141.3-63.4,141.3-141.3V306.2C471,228.3,407.6,164.9,329.7,164.9z M425.6,535.6c0,52.9-43,95.9-95.9,95.9H100.3
			c-52.9,0-95.9-43-95.9-95.9V306.2c0-52.9,43-95.9,95.9-95.9h229.4c52.9,0,95.9,43,95.9,95.9L425.6,535.6L425.6,535.6z"/>
		<path d="M215,289c-72.7,0-131.9,59.2-131.9,131.9c0,72.7,59.2,131.9,131.9,131.9s131.9-59.2,131.9-131.9
			C346.9,348.1,287.7,289,215,289z M215,507.4c-47.7,0-86.5-38.8-86.5-86.5c0-47.7,38.8-86.5,86.5-86.5s86.5,38.8,86.5,86.5
			C301.5,468.6,262.7,507.4,215,507.4z"/>
		<path d="M352.5,250.4c-8.8,0-17.4,3.5-23.5,9.8c-6.2,6.2-9.8,14.8-9.8,23.6c0,8.8,3.6,17.4,9.8,23.6c6.2,6.2,14.8,9.8,23.5,9.8
			c8.8,0,17.4-3.6,23.6-9.8c6.2-6.2,9.8-14.8,9.8-23.6c0-8.8-3.5-17.4-9.8-23.6C369.8,254,361.2,250.4,352.5,250.4z"/>
	</g>
</g>
</svg>
