<?xml version="1.0" encoding="utf-8"?>
<!-- Generator: Adobe Illustrator 19.1.0, SVG Export Plug-In . SVG Version: 6.00 Build 0)  -->
<svg version="1.1" id="Capa_1" xmlns="http://www.w3.org/2000/svg" xmlns:xlink="http://www.w3.org/1999/xlink" x="0px" y="0px"
	 viewBox="30 -30.6 430.1 430.1" style="enable-background:new 30 -30.6 430.1 430.1;" xml:space="preserve">
<style type="text/css">
	.st0{fill:#FFFFFF;}
</style>
<g>
	<path id="LinkedIn" class="st0" d="M460.1,230.9v159h-92.2V241.6c0-37.3-13.3-62.7-46.7-62.7c-25.5,0-40.6,17.1-47.3,33.7
		c-2.4,5.9-3.1,14.2-3.1,22.5v154.9h-92.2c0,0,1.2-251.3,0-277.3h92.2v39.3c-0.2,0.3-0.4,0.6-0.6,0.9h0.6v-0.9
		c12.3-18.9,34.1-45.8,83.1-45.8C414.6,106.1,460.1,145.7,460.1,230.9z M82.2-21.1C50.6-21.1,30-0.4,30,26.8c0,26.6,20,47.9,51,47.9
		h0.6c32.2,0,52.2-21.3,52.2-47.9C133.1-0.4,113.7-21.1,82.2-21.1z M35.5,389.9h92.2V112.6H35.5V389.9z"/>
</g>
</svg>
