<?xml version="1.0" encoding="utf-8"?>
<!-- Generator: Adobe Illustrator 19.1.0, SVG Export Plug-In . SVG Version: 6.00 Build 0)  -->
<svg version="1.1" id="Layer_1" xmlns="http://www.w3.org/2000/svg" xmlns:xlink="http://www.w3.org/1999/xlink" x="0px" y="0px"
	 viewBox="-147.8 164.9 681.5 512" style="enable-background:new -147.8 164.9 681.5 512;" xml:space="preserve">
<style type="text/css">
	.st0{fill:none;stroke:#000000;stroke-width:50;stroke-miterlimit:10;}
	.st1{fill:none;stroke:#000000;stroke-width:50;stroke-linecap:round;stroke-linejoin:round;stroke-miterlimit:10;}
</style>
<g>
	<path d="M407.3,198H-21.4c-67.8,0-103.2,55.2-103.2,123v199.7c0,67.8,35.4,123,103.2,123h428.6c67.8,0,103.2-55.2,103.2-123V321
		C510.5,253.2,475.1,198,407.3,198z M471,520.7c0,46-17.7,83.5-63.7,83.5H-21.4c-46,0-63.7-37.4-63.7-83.5V321
		c0-46,17.7-83.5,63.7-83.5h428.6c46,0,63.7,37.4,63.7,83.5L471,520.7L471,520.7z"/>
</g>
<polyline class="st0" points="-100.8,258 192.5,507.9 485.9,258 "/>
<line class="st1" x1="269.7" y1="442.2" x2="471" y2="574.1"/>
<line class="st1" x1="-88.3" y1="574.1" x2="115.4" y2="442.2"/>
</svg>
