<?xml version="1.0" encoding="utf-8"?>
<!-- Generator: Adobe Illustrator 19.1.0, SVG Export Plug-In . SVG Version: 6.00 Build 0)  -->
<svg version="1.1" id="Capa_1" xmlns="http://www.w3.org/2000/svg" xmlns:xlink="http://www.w3.org/1999/xlink" x="0px" y="0px"
	 viewBox="-82 205.8 430.1 430.1" style="enable-background:new -82 205.8 430.1 430.1;" xml:space="preserve">
<g>
	<path id="Vimeo" d="M285.2,222.9C225.4,221,185,254.5,163.8,323.6c10.9-4.5,21.5-6.8,31.9-6.8c21.8,0,31.5,12.2,28.9,36.8
		c-1.3,14.9-10.9,36.5-28.9,64.9s-31.5,42.6-40.5,42.6c-11.6,0-22.2-22-31.9-65.8c-3.2-12.9-9-45.8-17.3-98.8
		c-7.8-49-28.3-72-61.7-68.7C30.1,229.1,9,242-19.3,266.5c-20.6,18.7-41.5,37.4-62.7,56.2l20.2,26.1c19.3-13.6,30.6-20.3,33.7-20.3
		c14.8,0,28.6,23.2,41.5,69.7c11.5,42.6,23.2,85.2,34.7,127.8c17.3,46.5,38.5,69.7,63.6,69.7c40.5,0,90-38.1,148.5-114.2
		c56.5-72.9,85.7-130.4,87.7-172.3C350.5,252.9,329.6,224.2,285.2,222.9z"/>
</g>
</svg>
