<?xml version="1.0" encoding="utf-8"?>
<!-- Generator: Adobe Illustrator 19.1.0, SVG Export Plug-In . SVG Version: 6.00 Build 0)  -->
<svg version="1.1" id="Layer_1" xmlns="http://www.w3.org/2000/svg" xmlns:xlink="http://www.w3.org/1999/xlink" x="0px" y="0px"
	 viewBox="71 -71.5 512 512" style="enable-background:new 71 -71.5 512 512;" xml:space="preserve">
<style type="text/css">
	.st0{fill:#FFFFFF;}
</style>
<g transform="translate(1 1)">
	<g>
		<g>
			<path class="st0" d="M436.1-72.5H215.9C135.7-72.5,70-6.8,70,73.4v220.2c0,80.2,65.7,145.9,145.9,145.9h220.2
				c80.2,0,145.9-65.7,145.9-145.9V73.4C582-6.8,516.3-72.5,436.1-72.5z M564.9,293.6c0,70.8-58,128.9-128.9,128.9H215.9
				c-70.8,0-128.9-58-128.9-128.9V73.4c0-70.8,58-128.9,128.9-128.9h220.2c70.8,0,128.9,58,128.9,128.9V293.6z"/>
			<path class="st0" d="M436.1-21.3H215.9c-52.1,0-94.7,42.7-94.7,94.7v220.2c0,52.1,42.7,94.7,94.7,94.7h220.2
				c52.1,0,94.7-42.7,94.7-94.7V73.4C530.8,21.4,488.1-21.3,436.1-21.3z M513.7,293.6c0,42.7-35,77.7-77.7,77.7H215.9
				c-42.7,0-77.7-35-77.7-77.7V73.4c0-42.7,35-77.7,77.7-77.7h220.2c42.7,0,77.7,35,77.7,77.7V293.6L513.7,293.6z"/>
			<path class="st0" d="M326,47c-75.1,0-136.5,61.4-136.5,136.5S250.9,320,326,320s136.5-61.4,136.5-136.5S401.1,47,326,47z
				 M326,303c-65.7,0-119.5-53.8-119.5-119.5S260.3,64,326,64s119.5,53.8,119.5,119.5S391.7,303,326,303z"/>
			<path class="st0" d="M326,89.6c-52.1,0-93.9,41.8-93.9,93.9c0,52.1,41.8,93.9,93.9,93.9s93.9-41.8,93.9-93.9S378.1,89.6,326,89.6
				z M326,260.3c-42.7,0-76.8-34.1-76.8-76.8s34.1-76.8,76.8-76.8s76.8,34.1,76.8,76.8S368.7,260.3,326,260.3z"/>
			<path class="st0" d="M462.5,21.4c-14.5,0-25.6,11.1-25.6,25.6s11.1,25.6,25.6,25.6c14.5,0,25.6-11.1,25.6-25.6
				S477,21.4,462.5,21.4z"/>
		</g>
	</g>
</g>
</svg>
