<?xml version="1.0" encoding="utf-8"?>
<!-- Generator: Adobe Illustrator 19.1.0, SVG Export Plug-In . SVG Version: 6.00 Build 0)  -->
<svg version="1.1" id="Calque_1" xmlns="http://www.w3.org/2000/svg" xmlns:xlink="http://www.w3.org/1999/xlink" x="0px" y="0px"
	 viewBox="0 0 1190.6 841.9" style="enable-background:new 0 0 1190.6 841.9;" xml:space="preserve">
<style type="text/css">
	.st0{fill:none;stroke:#FFFFFF;stroke-width:2;stroke-miterlimit:10;}
</style>
<line class="st0" x1="470" y1="162" x2="562" y2="293"/>
<line class="st0" x1="562" y1="293" x2="548" y2="80"/>
<line class="st0" x1="548" y1="80" x2="470" y2="162"/>
<line class="st0" x1="562" y1="293" x2="587" y2="153"/>
<line class="st0" x1="562" y1="293" x2="494" y2="347"/>
<line class="st0" x1="562" y1="293" x2="465" y2="262"/>
<line class="st0" x1="465" y1="262" x2="494" y2="347"/>
<line class="st0" x1="465" y1="262" x2="470" y2="162"/>
<line class="st0" x1="494" y1="347" x2="465" y2="428"/>
<line class="st0" x1="494" y1="347" x2="494" y2="495"/>
<line class="st0" x1="494" y1="495" x2="465" y2="428"/>
<line class="st0" x1="587" y1="153" x2="699" y2="186.5"/>
<line class="st0" x1="749" y1="447" x2="789" y2="399"/>
<line class="st0" x1="749" y1="447" x2="811" y2="447"/>
<line class="st0" x1="811" y1="447" x2="841" y2="495"/>
<line class="st0" x1="811" y1="447" x2="871" y2="471"/>
<line class="st0" x1="789" y1="399" x2="709" y2="375"/>
<line class="st0" x1="789" y1="399" x2="749" y2="342"/>
<line class="st0" x1="749" y1="342" x2="709" y2="375"/>
<line class="st0" x1="181" y1="670" x2="124" y2="640"/>
<line class="st0" x1="181" y1="670" x2="101" y2="687"/>
<line class="st0" x1="181" y1="670" x2="101" y2="728"/>
<line class="st0" x1="101" y1="728" x2="101" y2="687"/>
<line class="st0" x1="181" y1="670" x2="250" y2="678.5"/>
<line class="st0" x1="250" y1="678.5" x2="264" y2="614"/>
<line class="st0" x1="215.5" y1="399" x2="186" y2="342"/>
<line class="st0" x1="215.5" y1="399" x2="250" y2="320"/>
<line class="st0" x1="1011" y1="169.8" x2="1022" y2="80"/>
<line class="st0" x1="1011" y1="169.8" x2="1050" y2="153"/>
<line class="st0" x1="1050" y1="153" x2="1016.5" y2="207"/>
<line class="st0" x1="1011" y1="169.8" x2="991" y2="142"/>
<line class="st0" x1="1011" y1="169.8" x2="952" y2="169.8"/>
<line class="st0" x1="991" y1="142" x2="952" y2="169.8"/>
<line class="st0" x1="699" y1="186.5" x2="749" y2="137"/>
<line class="st0" x1="562" y1="293" x2="534" y2="207"/>
<line class="st0" x1="534" y1="207" x2="548" y2="80"/>
<line class="st0" x1="534" y1="207" x2="470" y2="162"/>
<line class="st0" x1="534" y1="207" x2="516" y2="153"/>
<line class="st0" x1="516" y1="153" x2="548" y2="80"/>
<line class="st0" x1="562" y1="293" x2="541" y2="342"/>
<line class="st0" x1="541" y1="342" x2="494" y2="347"/>
<line class="st0" x1="541" y1="342" x2="494" y2="495"/>
<line class="st0" x1="562" y1="293" x2="633" y2="273"/>
<line class="st0" x1="633" y1="273" x2="587" y2="153"/>
<line class="st0" x1="699" y1="186.5" x2="691" y2="109"/>
<line class="st0" x1="699" y1="186.5" x2="651" y2="198"/>
<line class="st0" x1="651" y1="198" x2="633" y2="273"/>
<line class="st0" x1="562" y1="293" x2="597.5" y2="342"/>
<line class="st0" x1="597.5" y1="342" x2="633" y2="273"/>
</svg>
